<?xml version="1.0" encoding="utf-8"?>
<!-- Generator: Adobe Illustrator 16.0.0, SVG Export Plug-In . SVG Version: 6.00 Build 0)  -->
<!DOCTYPE svg PUBLIC "-//W3C//DTD SVG 1.1//EN" "http://www.w3.org/Graphics/SVG/1.1/DTD/svg11.dtd">
<svg version="1.1" id="Capa_1" xmlns="http://www.w3.org/2000/svg" xmlns:xlink="http://www.w3.org/1999/xlink" x="0px" y="0px"
	 width="200px" height="52px" viewBox="0 0 200 52" enable-background="new 0 0 200 52" xml:space="preserve">
<g>
	<rect x="10.5" y="12.519" fill="#1E1E1E" width="179" height="28.961"/>
	<g>
		<path fill="#FFFFFF" d="M27.758,33.57V19.31h1.025V33.57H27.758z"/>
		<path fill="#FFFFFF" d="M48.515,33.57V21.22l-5.631,9.634H42.24l-5.632-9.634v12.35h-1.025V19.29h1.025l5.954,10.218l5.954-10.218
			h1.025V33.57H48.515z"/>
		<path fill="#FFFFFF" d="M56.338,33.57V19.29h5.874c2.414,0,4.164,2.253,4.164,4.425c0,2.293-1.629,4.465-4.022,4.465h-4.989v5.391
			H56.338L56.338,33.57z M57.364,27.234h4.927c1.871,0,3.038-1.709,3.038-3.52c0-1.871-1.429-3.5-3.159-3.5h-4.807L57.364,27.234
			L57.364,27.234z"/>
		<path fill="#FFFFFF" d="M71.864,33.57V19.29h5.954c2.414,0,4.144,2.253,4.144,4.425c0,2.112-1.348,4.002-3.359,4.305l3.56,5.551
			h-1.187l-3.46-5.391H72.89v5.391H71.864z M72.89,27.234h5.008c1.851,0,3.037-1.729,3.037-3.52c0-1.83-1.428-3.5-3.178-3.5H72.89
			V27.234L72.89,27.234z"/>
		<path fill="#FFFFFF" d="M87.109,26.43c0-3.802,2.896-7.241,6.698-7.241c3.962,0,6.658,3.681,6.658,7.241
			c0,3.841-2.875,7.241-6.678,7.241C89.825,33.65,87.109,30.09,87.109,26.43z M93.787,32.725c3.419,0,5.652-3.197,5.652-6.294
			c0-3.278-2.393-6.295-5.652-6.295c-3.419,0-5.652,3.177-5.652,6.295C88.135,29.708,90.469,32.725,93.787,32.725z"/>
		<path fill="#FFFFFF" d="M119.271,33.57V21.22l-5.633,9.634h-0.643l-5.633-9.634v12.35h-1.025V19.29h1.025l5.954,10.218
			l5.954-10.218h1.025V33.57H119.271z"/>
		<path fill="#FFFFFF" d="M127.093,33.57V19.29h5.874c2.413,0,4.164,2.253,4.164,4.425c0,2.293-1.63,4.465-4.022,4.465h-4.989v5.391
			H127.093L127.093,33.57z M128.118,27.234h4.929c1.87,0,3.036-1.709,3.036-3.52c0-1.871-1.428-3.5-3.158-3.5h-4.807V27.234z"/>
		<path fill="#FFFFFF" d="M152.555,20.215h-5.229V33.57H146.3V20.215h-5.229V19.29h11.484V20.215z"/>
		<path fill="#FFFFFF" d="M168.545,26.47V19.29h1.025v7.181c0,3.822-1.569,7.201-5.954,7.201c-4.524,0-5.954-3.581-5.954-7.201
			V19.29h1.026v7.181c0,3.158,1.106,6.254,4.909,6.254C167.479,32.725,168.545,29.548,168.545,26.47z"/>
	</g>
</g>
</svg>
