<?xml version="1.0" encoding="utf-8"?>
<!-- Generator: Adobe Illustrator 16.0.0, SVG Export Plug-In . SVG Version: 6.00 Build 0)  -->
<!DOCTYPE svg PUBLIC "-//W3C//DTD SVG 1.1//EN" "http://www.w3.org/Graphics/SVG/1.1/DTD/svg11.dtd">
<svg version="1.1" id="Capa_1" xmlns="http://www.w3.org/2000/svg" xmlns:xlink="http://www.w3.org/1999/xlink" x="0px" y="0px"
	 width="482px" height="100px" viewBox="0 0 482 100" enable-background="new 0 0 482 100" xml:space="preserve">
<rect x="19" y="14" fill="#1E1E1E" width="445" height="72"/>
<g>
	<path fill="#FFFFFF" d="M61.905,66.334V30.882h2.55v35.452H61.905z"/>
	<path fill="#FFFFFF" d="M113.507,66.334V35.632l-14,23.952h-1.6L83.905,35.632v30.702h-2.55V30.832h2.55l14.801,25.401
		l14.801-25.401h2.55v35.502H113.507z"/>
	<path fill="#FFFFFF" d="M132.955,66.334V30.832h14.601c6,0,10.351,5.6,10.351,11c0,5.7-4.05,11.101-10,11.101h-12.401v13.4H132.955
		z M135.505,50.583h12.25c4.65,0,7.551-4.25,7.551-8.75c0-4.65-3.55-8.701-7.851-8.701h-11.951V50.583z"/>
	<path fill="#FFFFFF" d="M171.554,66.334V30.832h14.801c6,0,10.301,5.6,10.301,11c0,5.25-3.35,9.951-8.351,10.701l8.851,13.801
		h-2.95l-8.601-13.4h-11.5v13.4H171.554z M174.104,50.583h12.451c4.6,0,7.55-4.3,7.55-8.75c0-4.55-3.55-8.701-7.9-8.701h-12.101
		V50.583z"/>
	<path fill="#FFFFFF" d="M209.454,48.583c0-9.451,7.2-18.001,16.651-18.001c9.85,0,16.551,9.15,16.551,18.001
		c0,9.55-7.15,18.001-16.602,18.001C216.204,66.534,209.454,57.684,209.454,48.583z M226.055,64.233c8.5,0,14.051-7.95,14.051-15.65
		c0-8.15-5.95-15.651-14.051-15.651c-8.5,0-14.051,7.9-14.051,15.651C212.004,56.733,217.804,64.233,226.055,64.233z"/>
	<path fill="#FFFFFF" d="M289.406,66.334V35.632l-14.001,23.952h-1.601l-14.001-23.952v30.702h-2.55V30.832h2.55l14.802,25.401
		l14.801-25.401h2.55v35.502H289.406z"/>
	<path fill="#FFFFFF" d="M308.854,66.334V30.832h14.601c6.001,0,10.351,5.6,10.351,11c0,5.7-4.05,11.101-10,11.101h-12.401v13.4
		H308.854z M311.403,50.583h12.251c4.65,0,7.551-4.25,7.551-8.75c0-4.65-3.551-8.701-7.851-8.701h-11.951V50.583z"/>
	<path fill="#FFFFFF" d="M372.154,33.132h-13.001v33.202h-2.55V33.132h-13.001v-2.3h28.552V33.132z"/>
	<path fill="#FFFFFF" d="M411.904,48.683V30.832h2.55v17.851c0,9.5-3.9,17.901-14.801,17.901c-11.251,0-14.801-8.9-14.801-17.901
		V30.832h2.55v17.851c0,7.85,2.75,15.55,12.201,15.55C409.254,64.233,411.904,56.334,411.904,48.683z"/>
</g>
</svg>
